<svg xmlns="http://www.w3.org/2000/svg" viewBox="0 0 860 360" width="860" height="360">
  <rect width="860" height="360" fill="#ffffff" rx="12"/>
  <defs>
    <linearGradient id="areaGrad" x1="0" y1="0" x2="0" y2="1">
      <stop offset="0%" stop-color="#6366f1" stop-opacity="0.15"/>
      <stop offset="100%" stop-color="#6366f1" stop-opacity="0.01"/>
    </linearGradient>
  </defs>
  <line x1="72" y1="304.0" x2="832" y2="304.0" stroke="#e5e7eb" stroke-width="1"/>
<text x="64" y="308.0" text-anchor="end" font-size="11" fill="#9ca3af">1573</text>
<line x1="72" y1="251.2" x2="832" y2="251.2" stroke="#e5e7eb" stroke-width="1"/>
<text x="64" y="255.2" text-anchor="end" font-size="11" fill="#9ca3af">1633</text>
<line x1="72" y1="198.4" x2="832" y2="198.4" stroke="#e5e7eb" stroke-width="1"/>
<text x="64" y="202.4" text-anchor="end" font-size="11" fill="#9ca3af">1692</text>
<line x1="72" y1="145.6" x2="832" y2="145.6" stroke="#e5e7eb" stroke-width="1"/>
<text x="64" y="149.6" text-anchor="end" font-size="11" fill="#9ca3af">1752</text>
<line x1="72" y1="92.8" x2="832" y2="92.8" stroke="#e5e7eb" stroke-width="1"/>
<text x="64" y="96.8" text-anchor="end" font-size="11" fill="#9ca3af">1811</text>
<line x1="72" y1="40.0" x2="832" y2="40.0" stroke="#e5e7eb" stroke-width="1"/>
<text x="64" y="44.0" text-anchor="end" font-size="11" fill="#9ca3af">1871</text>

  <polygon points="72.0,304 72.0,278.5 106.5,196.0 141.1,161.4 175.6,155.1 210.2,164.0 244.7,136.5 279.3,148.0 313.8,109.0 348.4,93.9 382.9,111.7 417.5,85.1 452.0,105.5 486.5,124.1 521.1,105.5 555.6,84.2 590.2,121.4 624.7,113.5 659.3,94.8 693.8,98.4 728.4,83.3 762.9,91.3 797.5,95.7 832.0,65.5 832.0,304" fill="url(#areaGrad)"/>
  <polyline points="72.0,278.5 106.5,196.0 141.1,161.4 175.6,155.1 210.2,164.0 244.7,136.5 279.3,148.0 313.8,109.0 348.4,93.9 382.9,111.7 417.5,85.1 452.0,105.5 486.5,124.1 521.1,105.5 555.6,84.2 590.2,121.4 624.7,113.5 659.3,94.8 693.8,98.4 728.4,83.3 762.9,91.3 797.5,95.7 832.0,65.5" fill="none" stroke="#6366f1" stroke-width="2.5" stroke-linejoin="round" stroke-linecap="round"/>
  <circle cx="832.0" cy="65.5" r="5" fill="#6366f1" stroke="white" stroke-width="2"/>
<text x="832.0" y="55.5" text-anchor="end" font-size="11" font-weight="600" fill="#6366f1">1842</text>
<circle cx="72.0" cy="278.5" r="5" fill="#f59e0b" stroke="white" stroke-width="2"/>
<text x="72.0" y="268.5" text-anchor="start" font-size="11" font-weight="600" fill="#f59e0b">1602</text>

  <text x="72.0" y="350" text-anchor="middle" font-size="10" fill="#9ca3af" transform="rotate(-30,72.0,350)">WC470</text>
<text x="141.1" y="350" text-anchor="middle" font-size="10" fill="#9ca3af" transform="rotate(-30,141.1,350)">WC474</text>
<text x="210.2" y="350" text-anchor="middle" font-size="10" fill="#9ca3af" transform="rotate(-30,210.2,350)">WC476</text>
<text x="279.3" y="350" text-anchor="middle" font-size="10" fill="#9ca3af" transform="rotate(-30,279.3,350)">WC479</text>
<text x="348.4" y="350" text-anchor="middle" font-size="10" fill="#9ca3af" transform="rotate(-30,348.4,350)">WC481</text>
<text x="417.5" y="350" text-anchor="middle" font-size="10" fill="#9ca3af" transform="rotate(-30,417.5,350)">WC484</text>
<text x="486.5" y="350" text-anchor="middle" font-size="10" fill="#9ca3af" transform="rotate(-30,486.5,350)">WC486</text>
<text x="555.6" y="350" text-anchor="middle" font-size="10" fill="#9ca3af" transform="rotate(-30,555.6,350)">WC492</text>
<text x="624.7" y="350" text-anchor="middle" font-size="10" fill="#9ca3af" transform="rotate(-30,624.7,350)">WC494</text>
<text x="693.8" y="350" text-anchor="middle" font-size="10" fill="#9ca3af" transform="rotate(-30,693.8,350)">WC496</text>
<text x="762.9" y="350" text-anchor="middle" font-size="10" fill="#9ca3af" transform="rotate(-30,762.9,350)">WC498</text>
<text x="832.0" y="350" text-anchor="middle" font-size="10" fill="#9ca3af" transform="rotate(-30,832.0,350)">WC500</text>

  
    <text x="72" y="22" font-size="12" fill="#6b7280">Rating: <tspan font-weight="600" fill="#6366f1">1842</tspan></text>
    <text x="202" y="22" font-size="12" fill="#6b7280">Rank: <tspan font-weight="600" fill="#374151">#53721</tspan></text>
    <text x="332" y="22" font-size="12" fill="#6b7280">Top <tspan font-weight="600" fill="#374151">6.3%</tspan></text>
    <text x="442" y="22" font-size="12" fill="#6b7280">Contests: <tspan font-weight="600" fill="#374151">24</tspan></text>
    
    
  <text x="832" y="356" text-anchor="end" font-size="10" fill="#d1d5db">Updated 2026-05-11 · leetcode.com/EvianTang</text>
</svg>