<svg xmlns="http://www.w3.org/2000/svg" viewBox="0 0 860 360" width="860" height="360">
  <rect width="860" height="360" fill="#ffffff" rx="12"/>
  <defs>
    <linearGradient id="areaGrad" x1="0" y1="0" x2="0" y2="1">
      <stop offset="0%" stop-color="#6366f1" stop-opacity="0.15"/>
      <stop offset="100%" stop-color="#6366f1" stop-opacity="0.01"/>
    </linearGradient>
  </defs>
  <line x1="72" y1="304.0" x2="832" y2="304.0" stroke="#e5e7eb" stroke-width="1"/>
<text x="64" y="308.0" text-anchor="end" font-size="11" fill="#9ca3af">1576</text>
<line x1="72" y1="251.2" x2="832" y2="251.2" stroke="#e5e7eb" stroke-width="1"/>
<text x="64" y="255.2" text-anchor="end" font-size="11" fill="#9ca3af">1630</text>
<line x1="72" y1="198.4" x2="832" y2="198.4" stroke="#e5e7eb" stroke-width="1"/>
<text x="64" y="202.4" text-anchor="end" font-size="11" fill="#9ca3af">1685</text>
<line x1="72" y1="145.6" x2="832" y2="145.6" stroke="#e5e7eb" stroke-width="1"/>
<text x="64" y="149.6" text-anchor="end" font-size="11" fill="#9ca3af">1739</text>
<line x1="72" y1="92.8" x2="832" y2="92.8" stroke="#e5e7eb" stroke-width="1"/>
<text x="64" y="96.8" text-anchor="end" font-size="11" fill="#9ca3af">1794</text>
<line x1="72" y1="40.0" x2="832" y2="40.0" stroke="#e5e7eb" stroke-width="1"/>
<text x="64" y="44.0" text-anchor="end" font-size="11" fill="#9ca3af">1848</text>

  <polygon points="72.0,304 72.0,278.5 108.2,188.5 144.4,150.7 180.6,143.9 216.8,153.6 253.0,123.6 289.1,136.2 325.3,93.6 361.5,77.2 397.7,96.5 433.9,67.5 470.1,89.7 506.3,110.1 542.5,89.7 578.7,66.5 614.9,107.2 651.0,98.5 687.2,78.1 723.4,82.0 759.6,65.5 795.8,74.3 832.0,79.1 832.0,304" fill="url(#areaGrad)"/>
  <polyline points="72.0,278.5 108.2,188.5 144.4,150.7 180.6,143.9 216.8,153.6 253.0,123.6 289.1,136.2 325.3,93.6 361.5,77.2 397.7,96.5 433.9,67.5 470.1,89.7 506.3,110.1 542.5,89.7 578.7,66.5 614.9,107.2 651.0,98.5 687.2,78.1 723.4,82.0 759.6,65.5 795.8,74.3 832.0,79.1" fill="none" stroke="#6366f1" stroke-width="2.5" stroke-linejoin="round" stroke-linecap="round"/>
  <circle cx="759.6" cy="65.5" r="5" fill="#10b981" stroke="white" stroke-width="2"/>
<text x="759.6" y="55.5" text-anchor="middle" font-size="11" font-weight="600" fill="#10b981">1822</text>
<circle cx="72.0" cy="278.5" r="5" fill="#f59e0b" stroke="white" stroke-width="2"/>
<text x="72.0" y="268.5" text-anchor="start" font-size="11" font-weight="600" fill="#f59e0b">1602</text>
<circle cx="832.0" cy="79.1" r="5" fill="#6366f1" stroke="white" stroke-width="2"/>
<text x="832.0" y="69.1" text-anchor="end" font-size="11" font-weight="600" fill="#6366f1">1808</text>

  <text x="72.0" y="350" text-anchor="middle" font-size="10" fill="#9ca3af" transform="rotate(-30,72.0,350)">WC470</text>
<text x="144.4" y="350" text-anchor="middle" font-size="10" fill="#9ca3af" transform="rotate(-30,144.4,350)">WC474</text>
<text x="216.8" y="350" text-anchor="middle" font-size="10" fill="#9ca3af" transform="rotate(-30,216.8,350)">WC476</text>
<text x="289.1" y="350" text-anchor="middle" font-size="10" fill="#9ca3af" transform="rotate(-30,289.1,350)">WC479</text>
<text x="361.5" y="350" text-anchor="middle" font-size="10" fill="#9ca3af" transform="rotate(-30,361.5,350)">WC481</text>
<text x="433.9" y="350" text-anchor="middle" font-size="10" fill="#9ca3af" transform="rotate(-30,433.9,350)">WC484</text>
<text x="506.3" y="350" text-anchor="middle" font-size="10" fill="#9ca3af" transform="rotate(-30,506.3,350)">WC486</text>
<text x="578.7" y="350" text-anchor="middle" font-size="10" fill="#9ca3af" transform="rotate(-30,578.7,350)">WC492</text>
<text x="651.0" y="350" text-anchor="middle" font-size="10" fill="#9ca3af" transform="rotate(-30,651.0,350)">WC494</text>
<text x="723.4" y="350" text-anchor="middle" font-size="10" fill="#9ca3af" transform="rotate(-30,723.4,350)">WC496</text>
<text x="795.8" y="350" text-anchor="middle" font-size="10" fill="#9ca3af" transform="rotate(-30,795.8,350)">WC498</text>

  
    <text x="72" y="22" font-size="12" fill="#6b7280">Rating: <tspan font-weight="600" fill="#6366f1">1808</tspan></text>
    <text x="202" y="22" font-size="12" fill="#6b7280">Rank: <tspan font-weight="600" fill="#374151">#63816</tspan></text>
    <text x="332" y="22" font-size="12" fill="#6b7280">Top <tspan font-weight="600" fill="#374151">7.5%</tspan></text>
    <text x="442" y="22" font-size="12" fill="#6b7280">Contests: <tspan font-weight="600" fill="#374151">23</tspan></text>
    
    
  <text x="832" y="356" text-anchor="end" font-size="10" fill="#d1d5db">Updated 2026-05-04 · leetcode.com/EvianTang</text>
</svg>